<?xml version="1.0" encoding="utf-8"?>
<!-- Generator: Adobe Illustrator 25.0.0, SVG Export Plug-In . SVG Version: 6.00 Build 0)  -->
<svg version="1.1" id="Layer_1" xmlns="http://www.w3.org/2000/svg" xmlns:xlink="http://www.w3.org/1999/xlink" x="0px" y="0px"
	 viewBox="0 0 358.5 50.5" style="enable-background:new 0 0 358.5 50.5;" xml:space="preserve">
<style type="text/css">
	.st0{fill:#FFFFFF;}
	.st1{fill-rule:evenodd;clip-rule:evenodd;fill:#FFFFFF;}
</style>
<g>
	<g>
		<g>
			<path class="st0" d="M160.5,44c0.9-0.4,1.7-0.8,2.5-1.3C162.2,43.1,161.3,43.6,160.5,44z"/>
		</g>
		<g>
			<path class="st1" d="M160.5,44c0.9-0.4,1.7-0.8,2.5-1.3C162.2,43.1,161.3,43.6,160.5,44z"/>
		</g>
		<g>
			<path class="st1" d="M162.2,25.2c0,1.3-1,2.3-2.3,2.3c-1.3,0-2.3-1-2.3-2.3c0-2.9-2.4-5.3-5.3-5.3c-1.3,0-2.3-1-2.3-2.3
				c0-0.6,0.2-1.1,0.6-1.6c0.4-0.5,1-0.8,1.7-0.8C157.8,15.3,162.2,19.7,162.2,25.2z"/>
		</g>
		<g>
			<path class="st0" d="M160.5,44c0.9-0.4,1.7-0.8,2.5-1.3C162.2,43.1,161.3,43.6,160.5,44z"/>
		</g>
		<g>
			<path class="st0" d="M180.8,0.1h-28.7c-6.6,0-12.9,2.6-17.6,7.3c-4.8,4.8-7.4,11.1-7.4,17.8c0,13.8,11.3,25.1,25.1,25.1
				c0.6,0,1.3,0,1.8-0.1c2.2-0.1,5.7,0,8.8,0c1.5,0,2.9,0,4.1,0h13.8c0,0,0,0,0,0c6.7,0,13-2.6,17.7-7.3c4.8-4.7,7.4-11,7.4-17.7
				C205.9,11.4,194.7,0.1,180.8,0.1z M165.2,41c-0.2,0.2-0.5,0.4-0.7,0.6c-0.5,0.4-1,0.7-1.5,1.1c-0.8,0.5-1.6,0.9-2.5,1.3
				c-0.3,0.1-0.6,0.2-0.9,0.4c-0.6,0.2-1.2,0.4-1.8,0.6c-1.2,0.3-2.5,0.6-3.9,0.7l-2,0.1c-11.1-0.2-20.1-9.4-20.1-20.5
				c0-11.3,9.2-20.5,20.5-20.5c11.3,0,20.5,9.2,20.5,20.5c0,5.6-2.3,10.8-6.1,14.5C166.2,40.2,165.7,40.6,165.2,41z M167.9,45.6h-1
				c6.6-4.7,10.5-12.1,10.4-20.5c0-8.3-3.9-15.7-10.5-20.4h0.2c11.3,0.1,20.5,9.3,20.5,20.5C187.5,36.1,178.5,45.4,167.9,45.6z
				 M181.6,45.6c6.5-4.7,10.5-12.2,10.5-20.4c0-8.4-3.9-15.8-10.5-20.4c11,0.4,19.7,9.4,19.7,20.4C201.3,36.2,192.5,45.3,181.6,45.6
				z"/>
			<path class="st0" d="M152.3,7.7c-9.7,0-17.5,7.9-17.5,17.5c0,9.7,7.9,17.5,17.5,17.5c9.7,0,17.5-7.9,17.5-17.5
				C169.8,15.6,161.9,7.7,152.3,7.7z M152.3,38.1c-7.1,0-12.9-5.8-12.9-12.9c0-7.1,5.8-12.9,12.9-12.9s12.9,5.8,12.9,12.9
				C165.2,32.3,159.4,38.1,152.3,38.1z"/>
			<path class="st0" d="M154.5,32.9c0,0.1,0,0.3,0,0.4c0,0,0,0.1,0,0.1c0,0.1,0,0.2-0.1,0.4c0,0.1-0.1,0.2-0.1,0.3
				c0,0,0,0.1-0.1,0.1c0,0,0,0,0,0c-0.1,0.1-0.1,0.2-0.2,0.3c-0.1,0.1-0.1,0.1-0.2,0.2c-0.1,0.1-0.1,0.1-0.2,0.2
				c-0.1,0.1-0.2,0.1-0.3,0.2c-0.1,0-0.1,0.1-0.2,0.1c-0.2,0.1-0.4,0.1-0.6,0.2c-0.1,0-0.2,0-0.3,0c-5.5,0-10-4.5-10-10
				c0-1.3,1-2.3,2.3-2.3c1.3,0,2.3,1,2.3,2.3c0,2.9,2.4,5.3,5.3,5.3C153.6,30.6,154.5,31.6,154.5,32.9z"/>
		</g>
	</g>
	<g>
		<path class="st0" d="M8.5,48.5c-2.6-1.2-4.7-2.8-6.2-4.9C0.8,41.4,0,39,0,36.1h8.6c0.2,2.1,1,3.9,2.5,5.2c1.5,1.4,3.6,2,6.2,2
			c2.8,0,4.9-0.7,6.5-2c1.6-1.3,2.3-3.1,2.3-5.2c0-1.6-0.5-3-1.4-4c-1-1-2.2-1.8-3.6-2.4c-1.4-0.6-3.4-1.2-6-1.8
			c-3.2-0.8-5.8-1.7-7.8-2.6c-2-0.9-3.7-2.2-5.1-4.1C0.8,19.5,0.1,17,0.1,14c0-2.8,0.7-5.3,2.1-7.4c1.4-2.1,3.4-3.7,5.9-4.9
			C10.7,0.6,13.7,0,17,0c4.8,0,8.6,1.2,11.7,3.6c3,2.4,4.7,5.6,5,9.8h-8.9c-0.1-1.8-1-3.3-2.5-4.6s-3.6-1.9-6.1-1.9
			c-2.3,0-4.2,0.6-5.6,1.8c-1.5,1.2-2.2,2.9-2.2,5.1c0,1.5,0.5,2.7,1.4,3.7c0.9,1,2.1,1.7,3.5,2.3c1.4,0.6,3.3,1.2,5.8,1.8
			c3.2,0.9,5.9,1.8,7.9,2.7c2,0.9,3.8,2.3,5.2,4.1c1.4,1.9,2.2,4.3,2.2,7.4c0,2.5-0.7,4.8-2,7.1c-1.3,2.2-3.3,4-5.9,5.3
			c-2.6,1.3-5.6,2-9.1,2C14.1,50.2,11.1,49.6,8.5,48.5z"/>
		<path class="st0" d="M51.9,7.1v14.4h16.9v6.6H51.9v15h19.1v6.6H43.8V0.6h27.1v6.6H51.9z"/>
		<path class="st0" d="M121.1,49.7h-8L88.9,13.1v36.6h-8V0.6h8l24.2,36.6V0.6h8V49.7z"/>
	</g>
	<g>
		<path class="st0" d="M277.2,0.1l-14.8,50H253l-10.5-37.9l-11.2,37.9l-9.2,0.1L208,0.1h8.7L227,40.8l11.2-40.8h9.2l10.4,40.5
			l10.4-40.5H277.2z"/>
		<path class="st0" d="M292.1,6.7v14.7h17.3v6.7h-17.3v15.3h19.4v6.7h-27.7V0h27.7v6.7H292.1z"/>
		<path class="st0" d="M355.3,28.7c1.9,2.4,2.8,5,2.8,8c0,2.5-0.7,4.8-2,6.9c-1.3,2-3.2,3.6-5.7,4.8c-2.5,1.2-5.4,1.8-8.7,1.8h-20
			v-50h19.1c3.4,0,6.3,0.6,8.8,1.7c2.4,1.2,4.3,2.7,5.5,4.6c1.2,1.9,1.9,4.1,1.9,6.5c0,2.9-0.8,5.3-2.3,7.2
			c-1.5,1.9-3.6,3.3-6.2,4.2C351.1,24.9,353.4,26.3,355.3,28.7z M329.9,21.1H340c2.7,0,4.8-0.6,6.3-1.8c1.5-1.2,2.3-3,2.3-5.3
			c0-2.3-0.8-4-2.3-5.3c-1.5-1.3-3.6-1.9-6.3-1.9h-10.2V21.1z M347.5,41.4c1.6-1.3,2.4-3.2,2.4-5.6c0-2.4-0.8-4.4-2.5-5.8
			c-1.7-1.4-3.9-2.2-6.7-2.2h-10.8v15.6H341C343.7,43.4,345.9,42.7,347.5,41.4z"/>
	</g>
</g>
</svg>
